# xmcd
#
# Track frame offsets: 
#        150
#        23140
#        38995
#        68870
#        88430
#        114440
#        133875
#        147217
#        164225
#        188040
#        205782
#
# Disc length: 3058 seconds
#
# Revision: 0
# Processed by: cddbd v1.5.2PL0 Copyright (c) Steve Scherf et al.
# Submitted via: ExactAudioCopy v0.99pb4
#
DISCID=a60bf00b
DTITLE=Fusebusters - Re-Fused
DYEAR=1999
DGENRE=Blues
TTITLE0=Late Night Dancing
TTITLE1=Do This, Do That
TTITLE2=Mamma Said
TTITLE3=Follow Your Heart
TTITLE4=Djadzia
TTITLE5=You're The One
TTITLE6=The Shape That I'm In
TTITLE7=Hey You (What's That You Do)
TTITLE8=Laying On A Shelf
TTITLE9=Always Something
TTITLE10=After All
EXTD=
EXTT0=
EXTT1=
EXTT2=
EXTT3=
EXTT4=
EXTT5=
EXTT6=
EXTT7=
EXTT8=
EXTT9=
EXTT10=
PLAYORDER=
